<svg width="512" height="512" viewBox="0 0 512 512" xmlns="http://www.w3.org/2000/svg">
  <defs>
    <linearGradient id="grad" x1="0%" y1="0%" x2="100%" y2="100%">
      <stop offset="0%" stop-color="#E50914" />
      <stop offset="100%" stop-color="#B20710" />
    </linearGradient>
    <clipPath id="topbar-clip">
      <path d="M80 80 L432 80 A32 32 0 0 1 464 112 L464 152 L48 152 L48 112 A32 32 0 0 1 80 80 Z" />
    </clipPath>
  </defs>

  <!-- Bottom Part -->
  <rect x="48" y="160" width="416" height="288" rx="32" fill="url(#grad)" />
  
  <!-- Play button -->
  <circle cx="256" cy="304" r="72" fill="#ffffff" fill-opacity="0.2"/>
  <polygon points="232,264 304,304 232,344" fill="#ffffff"/>

  <!-- Top bar -->
  <path d="M80 80 L432 80 A32 32 0 0 1 464 112 L464 152 L48 152 L48 112 A32 32 0 0 1 80 80 Z" fill="#1A1A1A"/>
  
  <!-- Stripes on top bar -->
  <g clip-path="url(#topbar-clip)">
    <polygon points="80,80 128,80 96,152 48,152" fill="#ffffff"/>
    <polygon points="176,80 224,80 192,152 144,152" fill="#ffffff"/>
    <polygon points="272,80 320,80 288,152 240,152" fill="#ffffff"/>
    <polygon points="368,80 416,80 384,152 336,152" fill="#ffffff"/>
    <polygon points="464,80 512,80 480,152 432,152" fill="#ffffff"/>
  </g>
</svg>